<svg xmlns="http://www.w3.org/2000/svg" xmlns:xlink="http://www.w3.org/1999/xlink" xmlns:lucid="lucid" width="1463.14" height="452"><g transform="translate(0 -274.66666666666674)" lucid:page-tab-id="0_0"><path d="M0 0h1760v1360H0z" fill="#fff"/><path d="M393.8 357.02c0 31.82-25.76 57.63-57.5 57.63s-57.5-25.8-57.5-57.63c0-31.8 25.76-57.63 57.5-57.63s57.5 25.8 57.5 57.63z" fill="#9d5025"/><path d="M278.8 352.3h115V357h-115v-4.73z" fill="#9d5025"/><path d="M393.8 352.3c0 31.8-25.76 57.63-57.5 57.63s-57.5-25.82-57.5-57.63c0-31.8 25.76-57.63 57.5-57.63s57.5 25.8 57.5 57.63z" fill="#f58536"/><path d="M373.7 380.63l-4.48-11.8-9.97 3.84-14.23-37.42-3.97-10.33-1.88-4.9-2.88-7.65h-18.95v12.55h10.27l3.6 9.33-29.75 53.03h14.37l21.17-37.8 15.03 39.4 3.6-1.37 8.1-3.05 9.97-3.82z" fill="#fff"/><use xlink:href="#a" transform="matrix(1,0,0,1,278.80248866666653,414.66666666666674) translate(-15.833333333333329 17.77777777777778)"/><path d="M1135.14 357.02c0 31.82-25.76 57.63-57.5 57.63s-57.5-25.8-57.5-57.63c0-31.8 25.76-57.63 57.5-57.63s57.5 25.8 57.5 57.63z" fill="#9d5025"/><path d="M1020.14 352.3h115V357h-115v-4.73z" fill="#9d5025"/><path d="M1135.14 352.3c0 31.8-25.76 57.63-57.5 57.63s-57.5-25.82-57.5-57.63c0-31.8 25.76-57.63 57.5-57.63s57.5 25.8 57.5 57.63z" fill="#f58536"/><path d="M1115.03 380.63l-4.47-11.8-9.97 3.84-14.24-37.42-3.97-10.33-1.9-4.9-2.88-7.65H1058.68v12.55h10.27l3.6 9.33-29.75 53.03h14.38l21.16-37.8 15.02 39.4 3.62-1.37 8.1-3.05 9.95-3.82z" fill="#fff"/><use xlink:href="#b" transform="matrix(1,0,0,1,1020.1358220000002,414.66666666666674) translate(-17.71604938271605 17.77777777777778)"/><path d="M699.57 544.66h74.13c10.73 0 19.44 8.68 19.44 19.4v32.6c-3.85-2.02-12.2-4.17-24.64-4.17-5.08 0-9.26.33-14.24 1.12-8.36 1.36-12.76 3.73-12.76 5.2v55.4c0 .9 1.24 2.02 3.6 3.26h-45.53c-10.73 0-19.43-8.7-19.43-19.4v-74.02c0-10.72 8.7-19.4 19.43-19.4z" fill="#9d5025"/><path d="M699.57 540h74.12c10.72 0 19.42 8.7 19.42 19.4V592c-3.84-2.03-12.2-4.17-24.63-4.17-5.1 0-9.27.34-14.24 1.13-8.37 1.35-12.77 3.72-12.77 5.18v55.4c0 .9 1.23 2.02 3.6 3.26h-45.53c-10.73 0-19.43-8.7-19.43-19.4v-74c0-10.7 8.7-19.4 19.43-19.4z" fill="#f58536"/><path d="M770.43 602.72c-4.2-.02-7.8.25-11.96.9-3.76.24-6.98-.04-10.65-.94v5.3c0 1.25 3.72 3.25 10.65 4.37 4.17.66 7.75.93 11.96.9 14.72 0 22.7-3.47 22.7-5.26v-5.32zM747.3 618.34v36.36c0 1.87 6.4 5.25 21.58 5.25 6.63.16 12.3-.46 18.75-2.13 3-.96 5.16-2.12 5.4-2.9v-36.17c-4.44 2.75-13.6 4.25-22.7 4.25H766.6l-2.25-.37h-1.14l-1.78-.13-.96-.16-1.92-.25c-4.16-.56-7.6-1.68-11.25-3.76z" fill="#9d5025"/><path d="M770.43 597.42c-4.2-.02-7.8.25-11.96.9-7.02 1.16-10.65 3.16-10.65 4.37 0 1.2 3.72 3.22 10.65 4.35 4.17.66 7.75.93 11.96.9 14.72 0 22.7-3.47 22.7-5.26 0-1.8-7.98-5.28-22.7-5.28zM747.3 613v36.37c0 1.88 6.4 5.25 21.58 5.25 6.63.16 12.3-.46 18.75-2.13 3-.96 5.16-2.13 5.4-2.92v-36.16c-4.44 2.75-13.6 4.25-22.7 4.25H766.6l-2.25-.37h-1.14l-1.78-.33h-.96l-1.92-.25c-4.16-.5-7.6-1.63-11.25-3.7z" fill="#f58536"/><path d="M699.6 652.77h45.45v4.65H699.6c-10.76 0-19.46-8.7-19.46-19.4v-4.68.02c0 10.72 8.7 19.4 19.47 19.4z" fill="#9d5025"/><use xlink:href="#c" transform="matrix(1,0,0,1,680.1358219999998,660) translate(2.209876543209873 17.77777777777778)"/><use xlink:href="#d" transform="matrix(1,0,0,1,680.1358219999998,660) translate(62.64197530864197 17.77777777777778)"/><use xlink:href="#e" transform="matrix(1,0,0,1,680.1358219999998,660) translate(44.15432098765432 44.44444444444444)"/><path d="M680.14 333.55v56.28l49.5 24.84 49.5-24.84V375.8l-42.08-5.3v-31.67l42.08-5.28V319.5l-49.5-24.83-49.5 24.84v14.05z" fill="#876929"/><path d="M680.16 375.75l49.47 14.9v24l-49.47-24.82v-14.08z" fill="#876929"/><path d="M686.45 392.98l-6.3-3.14v-70.36l6.3-3.14v76.64z" fill="#876929"/><path d="M737.05 370.52l-50.6 7.13v-46l50.6 7.2v31.67zM779.14 333.58l-49.5-14.94v-23.97l49.5 24.86v14.05zM779.1 375.76l-49.46 14.9v24l49.47-24.86v-14.04z" fill="#d9a741"/><path d="M711.4 367.53l18.23 2.28V339.4l-18.23 2.3v25.85zM693.04 365.25l11.83 1.48v-24.18l-11.83 1.5v21.2z" fill="#876929"/><path d="M686.46 331.66l43.18-13 49.5 14.9-42.08 5.25-50.6-7.14z" fill="#624a1e"/><path d="M686.44 377.64l43.18 13.03 49.48-14.9-42.07-5.26-50.6 7.14z" fill="#fad791"/><path d="M779.1 363.54l-49.46 6.27V339.4l49.47 6.33v17.84z" fill="#d9a741"/><use xlink:href="#f" transform="matrix(1,0,0,1,680.135822,414.66666666666674) translate(22.370370370370374 17.77777777777778)"/><use xlink:href="#d" transform="matrix(1,0,0,1,680.135822,414.66666666666674) translate(25.425925925925924 44.44444444444444)"/><use xlink:href="#g" transform="matrix(1,0,0,1,680.135822,414.66666666666674) translate(18.635802469135804 71.11111111111111)"/><path d="M453.8 359.5h-59.58v-1h59.6zm241.22 0h-76.56v-1h76.56z" stroke="#3a414a" stroke-width=".05" fill="#3a414a"/><path d="M394.23 359.5h-.54l.04-1h.5z" fill="#3a414a"/><path d="M394.25 359.52h-.58l.04-1.05h.56zm-.5-1l-.03.95h.48v-.95z" stroke="#3a414a" stroke-width=".05" fill="#3a414a"/><path d="M709.78 359l-14.26 4.63v-9.27z" fill="#3a414a"/><path d="M711.4 359l-16.38 5.32v-10.65zm-15.38 3.94l12.14-3.94-12.14-3.95z" stroke="#3a414a" stroke-width=".05" fill="#3a414a"/><use xlink:href="#h" transform="matrix(1,0,0,1,453.81483434567895,348.3297786369486) translate(0 14.222222222222223)"/><use xlink:href="#i" transform="matrix(1,0,0,1,453.81483434567895,348.3297786369486) translate(78.76543209876544 14.222222222222223)"/><path d="M835.8 359.14h-56.2v-1h56.2zm168 0H988.5v-1h15.33z" stroke="#3a414a" stroke-width=".05" fill="#3a414a"/><path d="M779.62 359.14h-.5v-1h.5z" fill="#3a414a"/><path d="M779.64 359.17h-.56v-1.06h.56zm-.5-1v.94h.45v-.94z" stroke="#3a414a" stroke-width=".05" fill="#3a414a"/><path d="M1018.58 358.64l-14.27 4.63V354z" fill="#3a414a"/><path d="M1020.2 358.64l-16.4 5.32v-10.64zm-15.4 3.95l12.16-3.96-12.15-3.95z" stroke="#3a414a" stroke-width=".05" fill="#3a414a"/><use xlink:href="#h" transform="matrix(1,0,0,1,835.7901429876545,347.9735180722892) translate(0 14.222222222222223)"/><use xlink:href="#j" transform="matrix(1,0,0,1,835.7901429876545,347.9735180722892) translate(78.76543209876544 14.222222222222223)"/><path d="M336.8 604.65l.07.88.2.84.33.8.45.73.56.65.67.57.74.45.8.33.84.2.88.07h109.96v1h-110l-1-.08-1-.25-.93-.4-.87-.52-.78-.67-.66-.77-.53-.88-.38-.94-.24-1-.08-1V415.17h1zm348.3 5.52v1H566.63v-1z" stroke="#3a414a" stroke-width=".05" fill="#3a414a"/><path d="M336.3 414.65h.5v.52h-1v-.54z" fill="#3a414a"/><path d="M336.3 414.63h.53v.56h-1.05v-.6zm-.47.5h.95v-.45h-.48l-.47-.02z" stroke="#3a414a" stroke-width=".05" fill="#3a414a"/><path d="M699.85 610.67l-14.26 4.63v-9.27z" fill="#3a414a"/><path d="M701.47 610.67L685.1 616v-10.66zm-15.38 3.94l12.13-3.93-12.14-3.95z" stroke="#3a414a" stroke-width=".05" fill="#3a414a"/><use xlink:href="#k" transform="matrix(1,0,0,1,452.2839701481481,600.0000000000001) translate(0 14.222222222222223)"/><use xlink:href="#j" transform="matrix(1,0,0,1,452.2839701481481,600.0000000000001) translate(40.44444444444445 14.222222222222223)"/><path d="M1077.64 415.15V604a6 6 0 0 1-6 6H807.2" stroke="#3a414a" fill="none"/><path d="M1077.64 414.65h.5v.52h-1v-.54z" stroke="#3a414a" stroke-width=".05" fill="#3a414a"/><path d="M792.43 610l14.27-4.63v9.26z" stroke="#3a414a" fill="#3a414a"/><path d="M1364.5 313.78l-24.36 38.76 24.36 38.76 19.48-4.96.94-67.3-20.42-5.26z" fill="#876929"/><path d="M1391.7 384.33l-27.2 6.97v-77.52l27.2 6.98v63.57z" fill="#d9a741"/><path d="M1388.46 327.1l3.23 87.55 51.43-25.7v-65.4l-13.12 2.18-41.54 1.36z" fill="#876929"/><path d="M1408.1 344.38l16.03-.94L1440 314.7l-40.1-20.03-14.98 6.56 23.2 43.15z" fill="#876929"/><path d="M1399.9 294.67l40.08 20.04-15.84 28.74-24.25-48.77z" fill="#d9a741"/><path d="M1391.7 302.97l32.45 58.75 5.55 33.95-38 18.98-15.4-7.7V309.1l15.4-6.13z" fill="#876929"/><path d="M1443.13 323.52v65.45l-51.42 25.68V302.97l32.45 58.75 18.98-38.2z" fill="#d9a741"/><use xlink:href="#l" transform="matrix(1,0,0,1,1340.1358220000002,414.66666666666674) translate(10.79012345679012 17.77777777777778)"/><use xlink:href="#m" transform="matrix(1,0,0,1,1340.1358220000002,414.66666666666674) translate(29.27777777777778 44.44444444444444)"/><path d="M1144 359.5h-8.45v-1h8.44z" stroke="#3a414a" stroke-width=".05" fill="#3a414a"/><path d="M1135.56 359.5h-.53l.04-1h.5z" fill="#3a414a"/><path d="M1135.6 359.52h-.6l.05-1.05h.54zm-.5-1l-.04.95h.48v-.95z" stroke="#3a414a" stroke-width=".05" fill="#3a414a"/><path d="M1342.57 359l-7.32 2.38v-4.76z" fill="#3a414a"/><path d="M1344.2 359l-8.95 2.9v-1.05l5.7-1.85-5.7-1.86v-1.05z" stroke="#3a414a" stroke-width=".05" fill="#3a414a"/><use xlink:href="#n" transform="matrix(1,0,0,1,1143.9917723931885,348.3297786369486) translate(0 14.222222222222223)"/><use xlink:href="#o" transform="matrix(1,0,0,1,1143.9917723931885,348.3297786369486) translate(26.567901234567902 14.222222222222223)"/><use xlink:href="#p" transform="matrix(1,0,0,1,1143.9917723931885,348.3297786369486) translate(101.58024691358025 14.222222222222223)"/><use xlink:href="#q" transform="matrix(1,0,0,1,1143.9917723931885,348.3297786369486) translate(123.20987654320989 14.222222222222223)"/><path d="M94.82 381.47h-69.7c-2.8 0-5.12-2.3-5.12-5.08v-45.65c0-2.8 2.32-5.08 5.12-5.08h69.7c2.8 0 5.1 2.28 5.1 5.07v45.6c0 2.84-2.23 5.13-5.02 5.13h-.08zm-69.62-52.4c-.96 0-1.76.73-1.76 1.68v45.6c0 .94.8 1.72 1.76 1.72h69.7c.96 0 1.67-.78 1.67-1.73v-45.6c0-.94-.7-1.67-1.67-1.67zM94 403.67H25.95c-3.28-.02-5.92-2.66-5.92-5.93v-7.34c0-3.27 2.64-5.94 5.92-5.96H94c3.28 0 6 2.67 6 5.96v7.34c0 3.3-2.72 5.93-6 5.93zm-68.05-15.85c-1.36.02-2.48 1.18-2.48 2.58v7.34c0 1.4 1.12 2.52 2.48 2.54H94c1.44 0 2.56-1.15 2.56-2.57v-7.3c0-1.42-1.12-2.58-2.56-2.58z" stroke="#fff" stroke-opacity="0" fill="#232f3e"/><path d="M91.9 375.1H28.1c-.95 0-1.7-.77-1.7-1.67v-39.77c0-.9.75-1.7 1.7-1.7h63.8c.95 0 1.7.8 1.7 1.7v39.77c0 .9-.75 1.68-1.7 1.68zm-62.06-3.4h60.32v-36.32H29.84zM72.74 390.8H91.9c1.13 0 1.7.56 1.7 1.7v3.18c0 1.13-.57 1.7-1.7 1.7H72.74c-1.12 0-1.7-.57-1.7-1.7v-3.2c0-1.12.58-1.68 1.7-1.68z" stroke="#fff" stroke-opacity="0" fill="#232f3e"/><g><use xlink:href="#r" transform="matrix(1,0,0,1,-10,412.6666666666667) translate(41.69753086419753 17.77777777777778)"/></g><path d="M157.62 365.17h-57.2v-1h57.2zm105.35 0h-41.3v-1h41.3z" stroke="#3a414a" stroke-width=".05" fill="#3a414a"/><path d="M100.44 365.17h-.5v-1h.5z" fill="#3a414a"/><path d="M100.47 365.2h-.56v-1.06h.57zm-.5-1v.94h.45v-.95z" stroke="#3a414a" stroke-width=".05" fill="#3a414a"/><path d="M277.74 364.67l-14.27 4.63v-9.27z" fill="#3a414a"/><path d="M279.36 364.67l-16.4 5.32v-10.66zm-15.4 3.94l12.16-3.93-12.15-3.95z" stroke="#3a414a" stroke-width=".05" fill="#3a414a"/><g><use xlink:href="#s" transform="matrix(1,0,0,1,157.62007651625652,354) translate(0 14.222222222222223)"/></g><defs><path fill="#3a414a" d="M115-194c53 0 69 39 70 98 0 66-23 100-70 100C84 3 66-7 56-30L54 0H23l1-261h32v101c10-23 28-34 59-34zm-8 174c40 0 45-34 45-75 0-40-5-75-45-74-42 0-51 32-51 76 0 43 10 73 51 73" id="t"/><path fill="#3a414a" d="M24 0v-261h32V0H24" id="u"/><path fill="#3a414a" d="M100-194c62-1 85 37 85 99 1 63-27 99-86 99S16-35 15-95c0-66 28-99 85-99zM99-20c44 1 53-31 53-75 0-43-8-75-51-75s-53 32-53 75 10 74 51 75" id="v"/><path fill="#3a414a" d="M85-194c31 0 48 13 60 33l-1-100h32l1 261h-30c-2-10 0-23-3-31C134-8 116 4 85 4 32 4 16-35 15-94c0-66 23-100 70-100zm9 24c-40 0-46 34-46 75 0 40 6 74 45 74 42 0 51-32 51-76 0-42-9-74-50-73" id="w"/><path fill="#3a414a" d="M16-82v-28h88v28H16" id="x"/><path fill="#3a414a" d="M141-36C126-15 110 5 73 4 37 3 15-17 15-53c-1-64 63-63 125-63 3-35-9-54-41-54-24 1-41 7-42 31l-33-3c5-37 33-52 76-52 45 0 72 20 72 64v82c-1 20 7 32 28 27v20c-31 9-61-2-59-35zM48-53c0 20 12 33 32 33 41-3 63-29 60-74-43 2-92-5-92 41" id="y"/><path fill="#3a414a" d="M117-194c89-4 53 116 60 194h-32v-121c0-31-8-49-39-48C34-167 62-67 57 0H25l-1-190h30c1 10-1 24 2 32 11-22 29-35 61-36" id="z"/><path fill="#3a414a" d="M143 0L79-87 56-68V0H24v-261h32v163l83-92h37l-77 82L181 0h-38" id="A"/><path fill="#3a414a" d="M115-194c55 1 70 41 70 98S169 2 115 4C84 4 66-9 55-30l1 105H24l-1-265h31l2 30c10-21 28-34 59-34zm-8 174c40 0 45-34 45-75s-6-73-45-74c-42 0-51 32-51 76 0 43 10 73 51 73" id="B"/><path fill="#3a414a" d="M24-231v-30h32v30H24zM24 0v-190h32V0H24" id="C"/><g id="a"><use transform="matrix(0.06172839506172839,0,0,0.06172839506172839,0,0)" xlink:href="#t"/><use transform="matrix(0.06172839506172839,0,0,0.06172839506172839,12.345679012345679,0)" xlink:href="#u"/><use transform="matrix(0.06172839506172839,0,0,0.06172839506172839,17.22222222222222,0)" xlink:href="#v"/><use transform="matrix(0.06172839506172839,0,0,0.06172839506172839,29.5679012345679,0)" xlink:href="#v"/><use transform="matrix(0.06172839506172839,0,0,0.06172839506172839,41.913580246913575,0)" xlink:href="#w"/><use transform="matrix(0.06172839506172839,0,0,0.06172839506172839,54.25925925925925,0)" xlink:href="#x"/><use transform="matrix(0.06172839506172839,0,0,0.06172839506172839,61.60493827160493,0)" xlink:href="#t"/><use transform="matrix(0.06172839506172839,0,0,0.06172839506172839,73.9506172839506,0)" xlink:href="#y"/><use transform="matrix(0.06172839506172839,0,0,0.06172839506172839,86.29629629629629,0)" xlink:href="#z"/><use transform="matrix(0.06172839506172839,0,0,0.06172839506172839,98.64197530864197,0)" xlink:href="#A"/><use transform="matrix(0.06172839506172839,0,0,0.06172839506172839,109.75308641975309,0)" xlink:href="#x"/><use transform="matrix(0.06172839506172839,0,0,0.06172839506172839,117.09876543209877,0)" xlink:href="#y"/><use transform="matrix(0.06172839506172839,0,0,0.06172839506172839,129.44444444444446,0)" xlink:href="#B"/><use transform="matrix(0.06172839506172839,0,0,0.06172839506172839,141.79012345679013,0)" xlink:href="#C"/></g><path fill="#3a414a" d="M135-143c-3-34-86-38-87 0 15 53 115 12 119 90S17 21 10-45l28-5c4 36 97 45 98 0-10-56-113-15-118-90-4-57 82-63 122-42 12 7 21 19 24 35" id="D"/><path fill="#3a414a" d="M108 0H70L1-190h34L89-25l56-165h34" id="E"/><path fill="#3a414a" d="M96-169c-40 0-48 33-48 73s9 75 48 75c24 0 41-14 43-38l32 2c-6 37-31 61-74 61-59 0-76-41-82-99-10-93 101-131 147-64 4 7 5 14 7 22l-32 3c-4-21-16-35-41-35" id="F"/><g id="b"><use transform="matrix(0.06172839506172839,0,0,0.06172839506172839,0,0)" xlink:href="#t"/><use transform="matrix(0.06172839506172839,0,0,0.06172839506172839,12.345679012345679,0)" xlink:href="#u"/><use transform="matrix(0.06172839506172839,0,0,0.06172839506172839,17.22222222222222,0)" xlink:href="#v"/><use transform="matrix(0.06172839506172839,0,0,0.06172839506172839,29.5679012345679,0)" xlink:href="#v"/><use transform="matrix(0.06172839506172839,0,0,0.06172839506172839,41.913580246913575,0)" xlink:href="#w"/><use transform="matrix(0.06172839506172839,0,0,0.06172839506172839,54.25925925925925,0)" xlink:href="#x"/><use transform="matrix(0.06172839506172839,0,0,0.06172839506172839,61.60493827160493,0)" xlink:href="#t"/><use transform="matrix(0.06172839506172839,0,0,0.06172839506172839,73.9506172839506,0)" xlink:href="#y"/><use transform="matrix(0.06172839506172839,0,0,0.06172839506172839,86.29629629629629,0)" xlink:href="#z"/><use transform="matrix(0.06172839506172839,0,0,0.06172839506172839,98.64197530864197,0)" xlink:href="#A"/><use transform="matrix(0.06172839506172839,0,0,0.06172839506172839,109.75308641975309,0)" xlink:href="#x"/><use transform="matrix(0.06172839506172839,0,0,0.06172839506172839,117.09876543209877,0)" xlink:href="#D"/><use transform="matrix(0.06172839506172839,0,0,0.06172839506172839,128.20987654320987,0)" xlink:href="#E"/><use transform="matrix(0.06172839506172839,0,0,0.06172839506172839,139.320987654321,0)" xlink:href="#F"/></g><g id="c"><use transform="matrix(0.06172839506172839,0,0,0.06172839506172839,0,0)" xlink:href="#t"/><use transform="matrix(0.06172839506172839,0,0,0.06172839506172839,12.345679012345679,0)" xlink:href="#u"/><use transform="matrix(0.06172839506172839,0,0,0.06172839506172839,17.22222222222222,0)" xlink:href="#v"/><use transform="matrix(0.06172839506172839,0,0,0.06172839506172839,29.5679012345679,0)" xlink:href="#v"/><use transform="matrix(0.06172839506172839,0,0,0.06172839506172839,41.913580246913575,0)" xlink:href="#w"/></g><g id="d"><use transform="matrix(0.06172839506172839,0,0,0.06172839506172839,0,0)" xlink:href="#t"/><use transform="matrix(0.06172839506172839,0,0,0.06172839506172839,12.345679012345679,0)" xlink:href="#y"/><use transform="matrix(0.06172839506172839,0,0,0.06172839506172839,24.691358024691358,0)" xlink:href="#z"/><use transform="matrix(0.06172839506172839,0,0,0.06172839506172839,37.03703703703704,0)" xlink:href="#A"/></g><g id="e"><use transform="matrix(0.06172839506172839,0,0,0.06172839506172839,0,0)" xlink:href="#w"/><use transform="matrix(0.06172839506172839,0,0,0.06172839506172839,12.345679012345679,0)" xlink:href="#t"/></g><g id="f"><use transform="matrix(0.06172839506172839,0,0,0.06172839506172839,0,0)" xlink:href="#t"/><use transform="matrix(0.06172839506172839,0,0,0.06172839506172839,12.345679012345679,0)" xlink:href="#u"/><use transform="matrix(0.06172839506172839,0,0,0.06172839506172839,17.22222222222222,0)" xlink:href="#v"/><use transform="matrix(0.06172839506172839,0,0,0.06172839506172839,29.5679012345679,0)" xlink:href="#v"/><use transform="matrix(0.06172839506172839,0,0,0.06172839506172839,41.913580246913575,0)" xlink:href="#w"/></g><path fill="#3a414a" d="M145-31C134-9 116 4 85 4 32 4 16-35 15-94c0-59 17-99 70-100 32-1 48 14 60 33 0-11-1-24 2-32h30l-1 268h-32zM93-21c41 0 51-33 51-76s-8-73-50-73c-40 0-46 35-46 75s5 74 45 74" id="G"/><path fill="#3a414a" d="M84 4C-5 8 30-112 23-190h32v120c0 31 7 50 39 49 72-2 45-101 50-169h31l1 190h-30c-1-10 1-25-2-33-11 22-28 36-60 37" id="H"/><path fill="#3a414a" d="M100-194c63 0 86 42 84 106H49c0 40 14 67 53 68 26 1 43-12 49-29l28 8c-11 28-37 45-77 45C44 4 14-33 15-96c1-61 26-98 85-98zm52 81c6-60-76-77-97-28-3 7-6 17-6 28h103" id="I"/><g id="g"><use transform="matrix(0.06172839506172839,0,0,0.06172839506172839,0,0)" xlink:href="#G"/><use transform="matrix(0.06172839506172839,0,0,0.06172839506172839,12.345679012345679,0)" xlink:href="#H"/><use transform="matrix(0.06172839506172839,0,0,0.06172839506172839,24.691358024691358,0)" xlink:href="#I"/><use transform="matrix(0.06172839506172839,0,0,0.06172839506172839,37.03703703703704,0)" xlink:href="#H"/><use transform="matrix(0.06172839506172839,0,0,0.06172839506172839,49.382716049382715,0)" xlink:href="#I"/></g><path fill="#333" d="M135-194c87-1 58 113 63 194h-50c-7-57 23-157-34-157-59 0-34 97-39 157H25l-1-190h47c2 12-1 28 3 38 12-26 28-41 61-42" id="J"/><path fill="#333" d="M110-194c64 0 96 36 96 99 0 64-35 99-97 99-61 0-95-36-95-99 0-62 34-99 96-99zm-1 164c35 0 45-28 45-65 0-40-10-65-43-65-34 0-45 26-45 65 0 36 10 65 43 65" id="K"/><path fill="#333" d="M14-72v-43h91v43H14" id="L"/><path fill="#333" d="M137-138c1-29-70-34-71-4 15 46 118 7 119 86 1 83-164 76-172 9l43-7c4 19 20 25 44 25 33 8 57-30 24-41C81-84 22-81 20-136c-2-80 154-74 161-7" id="M"/><path fill="#333" d="M133-34C117-15 103 5 69 4 32 3 11-16 11-54c-1-60 55-63 116-61 1-26-3-47-28-47-18 1-26 9-28 27l-52-2c7-38 36-58 82-57s74 22 75 68l1 82c-1 14 12 18 25 15v27c-30 8-71 5-69-32zm-48 3c29 0 43-24 42-57-32 0-66-3-65 30 0 17 8 27 23 27" id="N"/><path fill="#333" d="M121-226c-27-7-43 5-38 36h38v33H83V0H34v-157H6v-33h28c-9-59 32-81 87-68v32" id="O"/><path fill="#333" d="M185-48c-13 30-37 53-82 52C43 2 14-33 14-96s30-98 90-98c62 0 83 45 84 108H66c0 31 8 55 39 56 18 0 30-7 34-22zm-45-69c5-46-57-63-70-21-2 6-4 13-4 21h74" id="P"/><g id="h"><use transform="matrix(0.04938271604938272,0,0,0.04938271604938272,0,0)" xlink:href="#J"/><use transform="matrix(0.04938271604938272,0,0,0.04938271604938272,10.814814814814815,0)" xlink:href="#K"/><use transform="matrix(0.04938271604938272,0,0,0.04938271604938272,21.62962962962963,0)" xlink:href="#J"/><use transform="matrix(0.04938271604938272,0,0,0.04938271604938272,32.44444444444444,0)" xlink:href="#L"/><use transform="matrix(0.04938271604938272,0,0,0.04938271604938272,38.32098765432099,0)" xlink:href="#M"/><use transform="matrix(0.04938271604938272,0,0,0.04938271604938272,48.19753086419753,0)" xlink:href="#N"/><use transform="matrix(0.04938271604938272,0,0,0.04938271604938272,58.074074074074076,0)" xlink:href="#O"/><use transform="matrix(0.04938271604938272,0,0,0.04938271604938272,63.95061728395062,0)" xlink:href="#P"/></g><path fill="#333" d="M220-157c-53 9-28 100-34 157h-49v-107c1-27-5-49-29-50C55-147 81-57 75 0H25l-1-190h47c2 12-1 28 3 38 10-53 101-56 108 0 13-22 24-43 59-42 82 1 51 116 57 194h-49v-107c-1-25-5-48-29-50" id="Q"/><path fill="#333" d="M195-6C206 82 75 100 31 46c-4-6-6-13-8-21l49-6c3 16 16 24 34 25 40 0 42-37 40-79-11 22-30 35-61 35-53 0-70-43-70-97 0-56 18-96 73-97 30 0 46 14 59 34l2-30h47zm-90-29c32 0 41-27 41-63 0-35-9-62-40-62-32 0-39 29-40 63 0 36 9 62 39 62" id="R"/><g id="i"><use transform="matrix(0.04938271604938272,0,0,0.04938271604938272,0,0)" xlink:href="#Q"/><use transform="matrix(0.04938271604938272,0,0,0.04938271604938272,15.80246913580247,0)" xlink:href="#P"/><use transform="matrix(0.04938271604938272,0,0,0.04938271604938272,25.679012345679016,0)" xlink:href="#M"/><use transform="matrix(0.04938271604938272,0,0,0.04938271604938272,35.55555555555556,0)" xlink:href="#M"/><use transform="matrix(0.04938271604938272,0,0,0.04938271604938272,45.4320987654321,0)" xlink:href="#N"/><use transform="matrix(0.04938271604938272,0,0,0.04938271604938272,55.308641975308646,0)" xlink:href="#R"/><use transform="matrix(0.04938271604938272,0,0,0.04938271604938272,66.12345679012346,0)" xlink:href="#P"/><use transform="matrix(0.04938271604938272,0,0,0.04938271604938272,76,0)" xlink:href="#M"/></g><path fill="#333" d="M135-150c-39-12-60 13-60 57V0H25l-1-190h47c2 13-1 29 3 40 6-28 27-53 61-41v41" id="S"/><path fill="#333" d="M84 4C32 4 15-41 15-95c0-55 18-99 73-99 29 0 47 12 58 34l2-30h48l-1 265h-49V-32C136-9 114 4 84 4zm21-34c32 0 41-29 41-66 0-36-9-64-40-64-33 0-39 30-40 65 0 43 13 65 39 65" id="T"/><path fill="#333" d="M85 4C-2 5 27-109 22-190h50c7 57-23 150 33 157 60-5 35-97 40-157h50l1 190h-47c-2-12 1-28-3-38-12 25-28 42-61 42" id="U"/><path fill="#333" d="M115-3C79 11 28 4 28-45v-112H4v-33h27l15-45h31v45h36v33H77v99c-1 23 16 31 38 25v30" id="V"/><g id="j"><use transform="matrix(0.04938271604938272,0,0,0.04938271604938272,0,0)" xlink:href="#S"/><use transform="matrix(0.04938271604938272,0,0,0.04938271604938272,6.913580246913581,0)" xlink:href="#P"/><use transform="matrix(0.04938271604938272,0,0,0.04938271604938272,16.790123456790127,0)" xlink:href="#T"/><use transform="matrix(0.04938271604938272,0,0,0.04938271604938272,27.604938271604947,0)" xlink:href="#U"/><use transform="matrix(0.04938271604938272,0,0,0.04938271604938272,38.41975308641976,0)" xlink:href="#P"/><use transform="matrix(0.04938271604938272,0,0,0.04938271604938272,48.296296296296305,0)" xlink:href="#M"/><use transform="matrix(0.04938271604938272,0,0,0.04938271604938272,58.17283950617284,0)" xlink:href="#V"/><use transform="matrix(0.04938271604938272,0,0,0.04938271604938272,64.0493827160494,0)" xlink:href="#M"/></g><g id="k"><use transform="matrix(0.04938271604938272,0,0,0.04938271604938272,0,0)" xlink:href="#M"/><use transform="matrix(0.04938271604938272,0,0,0.04938271604938272,9.876543209876544,0)" xlink:href="#N"/><use transform="matrix(0.04938271604938272,0,0,0.04938271604938272,19.75308641975309,0)" xlink:href="#O"/><use transform="matrix(0.04938271604938272,0,0,0.04938271604938272,25.629629629629633,0)" xlink:href="#P"/></g><path fill="#3a414a" d="M205 0l-28-72H64L36 0H1l101-248h38L239 0h-34zm-38-99l-47-123c-12 45-31 82-46 123h93" id="W"/><path fill="#3a414a" d="M210-169c-67 3-38 105-44 169h-31v-121c0-29-5-50-35-48C34-165 62-65 56 0H25l-1-190h30c1 10-1 24 2 32 10-44 99-50 107 0 11-21 27-35 58-36 85-2 47 119 55 194h-31v-121c0-29-5-49-35-48" id="X"/><path fill="#3a414a" d="M9 0v-24l116-142H16v-24h144v24L44-24h123V0H9" id="Y"/><g id="l"><use transform="matrix(0.06172839506172839,0,0,0.06172839506172839,0,0)" xlink:href="#W"/><use transform="matrix(0.06172839506172839,0,0,0.06172839506172839,14.814814814814813,0)" xlink:href="#X"/><use transform="matrix(0.06172839506172839,0,0,0.06172839506172839,33.2716049382716,0)" xlink:href="#y"/><use transform="matrix(0.06172839506172839,0,0,0.06172839506172839,45.61728395061728,0)" xlink:href="#Y"/><use transform="matrix(0.06172839506172839,0,0,0.06172839506172839,56.72839506172839,0)" xlink:href="#v"/><use transform="matrix(0.06172839506172839,0,0,0.06172839506172839,69.07407407407408,0)" xlink:href="#z"/></g><path fill="#3a414a" d="M185-189c-5-48-123-54-124 2 14 75 158 14 163 119 3 78-121 87-175 55-17-10-28-26-33-46l33-7c5 56 141 63 141-1 0-78-155-14-162-118-5-82 145-84 179-34 5 7 8 16 11 25" id="Z"/><path fill="#3a414a" d="M30 0v-248h187v28H63v79h144v27H63v87h162V0H30" id="aa"/><g id="m"><use transform="matrix(0.06172839506172839,0,0,0.06172839506172839,0,0)" xlink:href="#Z"/><use transform="matrix(0.06172839506172839,0,0,0.06172839506172839,14.814814814814813,0)" xlink:href="#aa"/><use transform="matrix(0.06172839506172839,0,0,0.06172839506172839,29.629629629629626,0)" xlink:href="#Z"/></g><g id="n"><use transform="matrix(0.04938271604938272,0,0,0.04938271604938272,0,0)" xlink:href="#K"/><use transform="matrix(0.04938271604938272,0,0,0.04938271604938272,10.814814814814815,0)" xlink:href="#J"/></g><path fill="#333" d="M190-63c-7 42-38 67-86 67-59 0-84-38-90-98-12-110 154-137 174-36l-49 2c-2-19-15-32-35-32-30 0-35 28-38 64-6 74 65 87 74 30" id="ab"/><g id="o"><use transform="matrix(0.04938271604938272,0,0,0.04938271604938272,0,0)" xlink:href="#M"/><use transform="matrix(0.04938271604938272,0,0,0.04938271604938272,9.876543209876544,0)" xlink:href="#U"/><use transform="matrix(0.04938271604938272,0,0,0.04938271604938272,20.69135802469136,0)" xlink:href="#ab"/><use transform="matrix(0.04938271604938272,0,0,0.04938271604938272,30.567901234567906,0)" xlink:href="#ab"/><use transform="matrix(0.04938271604938272,0,0,0.04938271604938272,40.44444444444445,0)" xlink:href="#P"/><use transform="matrix(0.04938271604938272,0,0,0.04938271604938272,50.320987654320994,0)" xlink:href="#M"/><use transform="matrix(0.04938271604938272,0,0,0.04938271604938272,60.19753086419754,0)" xlink:href="#M"/></g><g id="p"><use transform="matrix(0.04938271604938272,0,0,0.04938271604938272,0,0)" xlink:href="#K"/><use transform="matrix(0.04938271604938272,0,0,0.04938271604938272,10.814814814814815,0)" xlink:href="#O"/></g><path fill="#333" d="M135-194c53 0 70 44 70 98 0 56-19 98-73 100-31 1-45-17-59-34 3 33 2 69 2 105H25l-1-265h48c2 10 0 23 3 31 11-24 29-35 60-35zM114-30c33 0 39-31 40-66 0-38-9-64-40-64-56 0-55 130 0 130" id="ac"/><g id="q"><use transform="matrix(0.04938271604938272,0,0,0.04938271604938272,0,0)" xlink:href="#ac"/><use transform="matrix(0.04938271604938272,0,0,0.04938271604938272,10.814814814814815,0)" xlink:href="#S"/><use transform="matrix(0.04938271604938272,0,0,0.04938271604938272,17.728395061728396,0)" xlink:href="#K"/><use transform="matrix(0.04938271604938272,0,0,0.04938271604938272,28.543209876543205,0)" xlink:href="#ab"/><use transform="matrix(0.04938271604938272,0,0,0.04938271604938272,38.41975308641975,0)" xlink:href="#P"/><use transform="matrix(0.04938271604938272,0,0,0.04938271604938272,48.2962962962963,0)" xlink:href="#M"/><use transform="matrix(0.04938271604938272,0,0,0.04938271604938272,58.17283950617284,0)" xlink:href="#M"/></g><path fill="#3a414a" d="M212-179c-10-28-35-45-73-45-59 0-87 40-87 99 0 60 29 101 89 101 43 0 62-24 78-52l27 14C228-24 195 4 139 4 59 4 22-46 18-125c-6-104 99-153 187-111 19 9 31 26 39 46" id="ad"/><path fill="#3a414a" d="M59-47c-2 24 18 29 38 22v24C64 9 27 4 27-40v-127H5v-23h24l9-43h21v43h35v23H59v120" id="ae"/><g id="r"><use transform="matrix(0.06172839506172839,0,0,0.06172839506172839,0,0)" xlink:href="#ad"/><use transform="matrix(0.06172839506172839,0,0,0.06172839506172839,15.987654320987653,0)" xlink:href="#u"/><use transform="matrix(0.06172839506172839,0,0,0.06172839506172839,20.864197530864196,0)" xlink:href="#C"/><use transform="matrix(0.06172839506172839,0,0,0.06172839506172839,25.74074074074074,0)" xlink:href="#I"/><use transform="matrix(0.06172839506172839,0,0,0.06172839506172839,38.08641975308642,0)" xlink:href="#z"/><use transform="matrix(0.06172839506172839,0,0,0.06172839506172839,50.432098765432094,0)" xlink:href="#ae"/></g><g id="s"><use transform="matrix(0.04938271604938272,0,0,0.04938271604938272,0,0)" xlink:href="#S"/><use transform="matrix(0.04938271604938272,0,0,0.04938271604938272,6.913580246913581,0)" xlink:href="#P"/><use transform="matrix(0.04938271604938272,0,0,0.04938271604938272,16.790123456790127,0)" xlink:href="#T"/><use transform="matrix(0.04938271604938272,0,0,0.04938271604938272,27.604938271604947,0)" xlink:href="#U"/><use transform="matrix(0.04938271604938272,0,0,0.04938271604938272,38.41975308641976,0)" xlink:href="#P"/><use transform="matrix(0.04938271604938272,0,0,0.04938271604938272,48.296296296296305,0)" xlink:href="#M"/><use transform="matrix(0.04938271604938272,0,0,0.04938271604938272,58.17283950617284,0)" xlink:href="#V"/></g></defs></g></svg>